<svg width="140" height="77" viewBox="0 0 140 77" fill="none" xmlns="http://www.w3.org/2000/svg">
<path d="M66.5665 51.216C65.5585 51.216 64.6545 51.048 63.8545 50.712C63.0545 50.36 62.4225 49.88 61.9585 49.272C61.4945 48.648 61.2385 47.936 61.1905 47.136H63.4465C63.5105 47.792 63.8145 48.328 64.3585 48.744C64.9185 49.16 65.6465 49.368 66.5425 49.368C67.3745 49.368 68.0305 49.184 68.5105 48.816C68.9905 48.448 69.2305 47.984 69.2305 47.424C69.2305 46.848 68.9745 46.424 68.4625 46.152C67.9505 45.864 67.1585 45.584 66.0865 45.312C65.1105 45.056 64.3105 44.8 63.6865 44.544C63.0785 44.272 62.5505 43.88 62.1025 43.368C61.6705 42.84 61.4545 42.152 61.4545 41.304C61.4545 40.632 61.6545 40.016 62.0545 39.456C62.4545 38.896 63.0225 38.456 63.7585 38.136C64.4945 37.8 65.3345 37.632 66.2785 37.632C67.7345 37.632 68.9105 38 69.8065 38.736C70.7025 39.472 71.1825 40.48 71.2465 41.76H69.0625C69.0145 41.072 68.7345 40.52 68.2225 40.104C67.7265 39.688 67.0545 39.48 66.2065 39.48C65.4225 39.48 64.7985 39.648 64.3345 39.984C63.8705 40.32 63.6385 40.76 63.6385 41.304C63.6385 41.736 63.7745 42.096 64.0465 42.384C64.3345 42.656 64.6865 42.88 65.1025 43.056C65.5345 43.216 66.1265 43.4 66.8785 43.608C67.8225 43.864 68.5905 44.12 69.1825 44.376C69.7745 44.616 70.2785 44.984 70.6945 45.48C71.1265 45.976 71.3505 46.624 71.3665 47.424C71.3665 48.144 71.1665 48.792 70.7665 49.368C70.3665 49.944 69.7985 50.4 69.0625 50.736C68.3425 51.056 67.5105 51.216 66.5665 51.216ZM77.1136 39.648V47.4C77.1136 48.04 77.2496 48.496 77.5216 48.768C77.7936 49.024 78.2656 49.152 78.9376 49.152H80.5456V51H78.5776C77.3616 51 76.4496 50.72 75.8416 50.16C75.2336 49.6 74.9296 48.68 74.9296 47.4V39.648H73.2256V37.848H74.9296V34.536H77.1136V37.848H80.5456V39.648H77.1136ZM82.3758 44.376C82.3758 43.032 82.6478 41.856 83.1918 40.848C83.7358 39.824 84.4798 39.032 85.4238 38.472C86.3838 37.912 87.4478 37.632 88.6158 37.632C89.7678 37.632 90.7678 37.88 91.6158 38.376C92.4638 38.872 93.0958 39.496 93.5118 40.248V37.848H95.7198V51H93.5118V48.552C93.0798 49.32 92.4318 49.96 91.5678 50.472C90.7198 50.968 89.7278 51.216 88.5918 51.216C87.4238 51.216 86.3678 50.928 85.4238 50.352C84.4798 49.776 83.7358 48.968 83.1918 47.928C82.6478 46.888 82.3758 45.704 82.3758 44.376ZM93.5118 44.4C93.5118 43.408 93.3118 42.544 92.9118 41.808C92.5118 41.072 91.9678 40.512 91.2798 40.128C90.6078 39.728 89.8638 39.528 89.0478 39.528C88.2318 39.528 87.4878 39.72 86.8158 40.104C86.1438 40.488 85.6078 41.048 85.2078 41.784C84.8078 42.52 84.6078 43.384 84.6078 44.376C84.6078 45.384 84.8078 46.264 85.2078 47.016C85.6078 47.752 86.1438 48.32 86.8158 48.72C87.4878 49.104 88.2318 49.296 89.0478 49.296C89.8638 49.296 90.6078 49.104 91.2798 48.72C91.9678 48.32 92.5118 47.752 92.9118 47.016C93.3118 46.264 93.5118 45.392 93.5118 44.4ZM104.835 37.632C105.971 37.632 106.963 37.88 107.811 38.376C108.675 38.872 109.315 39.496 109.731 40.248V37.848H111.939V51.288C111.939 52.488 111.683 53.552 111.171 54.48C110.659 55.424 109.923 56.16 108.963 56.688C108.019 57.216 106.915 57.48 105.651 57.48C103.923 57.48 102.483 57.072 101.331 56.256C100.179 55.44 99.4985 54.328 99.2905 52.92H101.451C101.691 53.72 102.187 54.36 102.939 54.84C103.691 55.336 104.595 55.584 105.651 55.584C106.851 55.584 107.827 55.208 108.579 54.456C109.347 53.704 109.731 52.648 109.731 51.288V48.528C109.299 49.296 108.659 49.936 107.811 50.448C106.963 50.96 105.971 51.216 104.835 51.216C103.667 51.216 102.603 50.928 101.643 50.352C100.699 49.776 99.9545 48.968 99.4105 47.928C98.8665 46.888 98.5945 45.704 98.5945 44.376C98.5945 43.032 98.8665 41.856 99.4105 40.848C99.9545 39.824 100.699 39.032 101.643 38.472C102.603 37.912 103.667 37.632 104.835 37.632ZM109.731 44.4C109.731 43.408 109.531 42.544 109.131 41.808C108.731 41.072 108.187 40.512 107.499 40.128C106.827 39.728 106.083 39.528 105.267 39.528C104.451 39.528 103.707 39.72 103.035 40.104C102.363 40.488 101.827 41.048 101.427 41.784C101.027 42.52 100.827 43.384 100.827 44.376C100.827 45.384 101.027 46.264 101.427 47.016C101.827 47.752 102.363 48.32 103.035 48.72C103.707 49.104 104.451 49.296 105.267 49.296C106.083 49.296 106.827 49.104 107.499 48.72C108.187 48.32 108.731 47.752 109.131 47.016C109.531 46.264 109.731 45.392 109.731 44.4ZM114.813 44.376C114.813 43.032 115.085 41.856 115.629 40.848C116.173 39.824 116.917 39.032 117.861 38.472C118.821 37.912 119.885 37.632 121.053 37.632C122.205 37.632 123.205 37.88 124.053 38.376C124.901 38.872 125.533 39.496 125.949 40.248V37.848H128.157V51H125.949V48.552C125.517 49.32 124.869 49.96 124.005 50.472C123.157 50.968 122.165 51.216 121.029 51.216C119.861 51.216 118.805 50.928 117.861 50.352C116.917 49.776 116.173 48.968 115.629 47.928C115.085 46.888 114.813 45.704 114.813 44.376ZM125.949 44.4C125.949 43.408 125.749 42.544 125.349 41.808C124.949 41.072 124.405 40.512 123.717 40.128C123.045 39.728 122.301 39.528 121.485 39.528C120.669 39.528 119.925 39.72 119.253 40.104C118.581 40.488 118.045 41.048 117.645 41.784C117.245 42.52 117.045 43.384 117.045 44.376C117.045 45.384 117.245 46.264 117.645 47.016C118.045 47.752 118.581 48.32 119.253 48.72C119.925 49.104 120.669 49.296 121.485 49.296C122.301 49.296 123.045 49.104 123.717 48.72C124.405 48.32 124.949 47.752 125.349 47.016C125.749 46.264 125.949 45.392 125.949 44.4Z" fill="#0C0D36"/>
<path d="M20.5133 51.2797L20.5226 43.9196L13.4144 43.9269L30.1571 14.9277L46.8568 43.8959L39.7393 43.8979L39.7393 51.2633L59.5863 51.2453L30.1664 0.202233L0.666351 51.2977L20.5133 51.2797Z" fill="#0C0D36"/>
<path d="M139.313 29.8132C139.762 29.3641 139.762 28.636 139.313 28.1869L131.995 20.8683C131.546 20.4192 130.817 20.4192 130.368 20.8683C129.919 21.3174 129.919 22.0456 130.368 22.4947L136.874 29L130.368 35.5054C129.919 35.9545 129.919 36.6827 130.368 37.1318C130.817 37.5809 131.546 37.5809 131.995 37.1318L139.313 29.8132ZM62 30.15L138.5 30.15L138.5 27.85L62 27.85L62 30.15Z" fill="#0C0D36"/>
</svg>
